<svg xmlns="http://www.w3.org/2000/svg" data-name="Design" viewBox="0 0 2000 2000"><path fill="#f2f2f2" d="M1759.17191,1491.99392h-1486.42s-125.74982-164.10742-31.614-288.64823,304.04678,11.30846,356.70214-256.309,445.85574-300.70738,505.104-144.29858,69.48218,372.33837,308.27406,372.33837S1827.39816,1264.11818,1759.17191,1491.99392Z" class="colorf2f2f2 svgShape"/><circle cx="1168.57" cy="947.037" r="145.834" fill="#a9e7db" opacity=".5" class="colora9e7db svgShape"/><circle cx="384.412" cy="763.086" r="93.627" fill="#a9e7db" opacity=".5" class="colora9e7db svgShape"/><circle cx="272.765" cy="1214.936" r="122.337" fill="#a9e7db" opacity=".5" class="colora9e7db svgShape"/><rect width="25.585" height="614.036" x="1503.227" y="877.958" fill="#658dff" class="color658dff svgShape"/><rect width="25.585" height="77.607" x="1503.227" y="877.958" fill="#2349dc" class="color2349dc svgShape"/><path fill="#3866f6" d="M1706.21741 877.95767H1516.01977v-278.005H1603.878s5.62886 29.32013 18.2164 73.01924C1638.05935 728.43968 1665.17953 806.93412 1706.21741 877.95767zM1516.01977 599.95267v278.005H1325.82212c73.37716-127.05443 102.33938-278.005 102.33938-278.005z" class="color3866f6 svgShape"/><path fill="#658dff" d="M1622.09443 672.97191A829.49256 829.49256 0 011516.01977 773.418c-52.6535 41.54976-114.262 78.80113-185.18312 104.53964h-5.01453c73.37716-127.05443 102.33938-278.005 102.33938-278.005H1603.878S1609.50689 629.2728 1622.09443 672.97191zM749.14348 1491.20763H311.07955c-8.44281-132.88784 26.55708-136.87891-32.28806-395.84894q-.921-3.91409-1.842-7.98246c-22.36113-97.17118 51.98857-131.96651 55.92843-131.96651h320.22c20.05843 0 35.40934 13.611 37.66081 33.36274l53.83062 462.98323z" class="color658dff svgShape"/><path fill="#b2c6ff" d="M533.05368,955.40972l-254.26219,139.949q-.921-3.91409-1.842-7.98246c-22.36113-97.17118,51.98857-131.96651,55.92843-131.96651H533.05368Z" opacity=".3" class="colorb2c6ff svgShape"/><path fill="#b2c6ff" d="M811.25345,1491.22625H394.01593a343.42892,343.42892,0,0,0,8.23825-61.40363,461.38193,461.38193,0,0,0-1.89326-67.74861c-11.61562-122.24446-62.93865-241.26489-68.31172-305.841-8.23824-99.37176,58.9988-100.80435,62.939-100.80435H715.20785c20.05874,0,35.40965,13.611,37.66113,33.36242l53.83029,462.98355Z" class="colorb2c6ff svgShape"/><path fill="#658dff" d="M780.14219,1316.12373,700.778,1491.22625H462.37856l8.44281-32.33928a295.81358,295.81358,0,0,1-68.56719-29.06435,461.38193,461.38193,0,0,0-1.89326-67.74861c45.95028-64.88313,35.71634-158.42116,30.0878-282.3543-2.76336-61.19906-.76767-99.93424,2.60971-124.29106H712.08657Z" opacity=".2" class="color658dff svgShape"/><path fill="#ccdbfb" d="M867.48889,1482.83466h-3.83773l-4.55418-39.45195L805.26669,980.39948c-2.25148-19.75174-17.60239-33.36274-37.66113-33.36274h3.78682c20.10965,0,35.46055,13.611,37.712,33.36274l53.77939,462.98323Z" class="colorccdbfb svgShape"/><path fill="#0d0c0c" d="M796.15165,567.772s-40.93575-63.10928-112.57332-13.64525S646.0539,711.04714,565.88805,765.62814,437.96383,850.911,461.843,970.30689,744.982,1106.75939,744.982,1106.75939s254.14278,10.23394,295.07853-73.34322-8.32992-153.26315-49.464-170.56562c-55.439-23.31962-19.87584-203.42135-19.87584-203.42135Z" class="color0d0c0c svgShape"/><path fill="#2349dc" d="M811.25345,1015.86l76.64784,307.27742,167.52989-31.05722s-51.06538-220.16844-68.92155-297.31807c-18.53086-80.06471-80.16584-80.06471-80.16584-80.06471Z" class="color2349dc svgShape"/><path fill="#ffbdbd" d="M1247.61327,1428.737c12.00547,23.14131,33.89188,29.23383,53.93036,29.11734,23.31776-.112,44.19607-8.70687,44.19607-8.70687l21.58594,27.911,66.38773,2.16086-42.663-73.022c-6.30921-10.81207-18.53436-17.76885-31.99623-18.207l-79.18416-2.57738Z" class="colorffbdbd svgShape"/><polygon fill="#ffbdbd" points="1279.87 1385.413 1212.357 1356.988 1187.371 1426.815 1270.221 1443.146 1279.87 1385.413" class="colorffbdbd svgShape"/><path fill="#2349dc" d="M998.42156,1238.28945l245.553,118.69874-60.92735,112.65974-251.38841-85.91516a52.70343,52.70343,0,0,1-27.109-18.3106c-24.24337-31.20156-23.35192-81.29736,5.61654-113.5115h0C934.21416,1225.17047,970.49674,1219.57039,998.42156,1238.28945Z" class="color2349dc svgShape"/><path fill="#3866f6" d="M910.16455,1251.90583s-5.52642,60.43139-5.52642,240.08809H509.19864l35.40964-388.63384,27.06866-156.32334,5.62885-32.33928h329.021s43.136,165.02225,45.64327,229.0868C955.552,1235.88969,910.16455,1251.90583,910.16455,1251.90583Z" class="color3866f6 svgShape"/><polygon fill="#2349dc" points="659.996 1491.994 509.199 1491.994 544.608 1103.36 571.677 947.037 659.996 1491.994" class="color2349dc svgShape"/><path fill="#0e2cc2" d="M909.75282,1339.60226l-5.11338-.18662,3.02591-82.70185,1.357-.67983c67.2924-33.66219,37.16131-147.06166,36.84939-148.204l4.93742-1.349c.31992,1.17437,31.11217,117.10786-38.1424,153.43472Z" class="color0e2cc2 svgShape"/><path fill="#ffbdbd" d="M888.98022,914.69746S879.821,969.7561,791.91116,969.7561c-111.24285,0-141.84222-55.05864-141.84222-55.05864s63.29687-1.842,81.61571-115.64336l3.4795-38.12148,77.93134,43.49423,23.84524,13.304-2.25147,18.62585c-1.48412,12.383-1.79113,25.43149.56279,37.25168,2.81427,14.32745,9.51748,26.81286,22.71935,34.13009Z" class="colorffbdbd svgShape"/><path fill="#0d0c0c" d="M835.25205,873.60837l-91.082-70.87021,68.92542,1.68869,23.84524,13.304-2.25147,18.62585C833.20514,848.73966,832.89813,861.78818,835.25205,873.60837Z" class="color0d0c0c svgShape"/><path fill="#ffbdbd" d="M957.99239,634.43646l-16.97395,121.97c-5.84463,41.99746-34.54722,69.75446-72.284,79.70089-24.53745,6.46743-50.62433,3.42511-74.09959-6.20909l-62.26082-25.55193,11.85754-155.06108,87.35724-56.47736Z" class="colorffbdbd svgShape"/><path fill="#0d0c0c" d="M695.15169,676.9656c1.62,7.893,141.3573-27.25532,151.40873-118.87492C846.56042,558.09068,671.03091,559.41294,695.15169,676.9656Z" class="color0d0c0c svgShape"/><path fill="#0d0c0c" d="M719.58513,604.99384c9.97-55.069,49.46922-113.51763,152.42249-100.18285,55.62255,7.20461,119.65959,73.54848,98.713,154.61821a23.28292,23.28292,0,0,1-1.02358,3.19346c-70.71776,1.02884-133.31831-50.46057-133.31831-50.46057Z" class="color0d0c0c svgShape"/><polygon fill="#0d0c0c" points="769.17 629.456 755.883 718.439 696.886 642.04 769.17 629.456" class="color0d0c0c svgShape"/><path fill="#ffbdbd" d="M697.10761,703.9012a35.43216,35.43216,0,1,0,38.68987-31.84339A35.43333,35.43333,0,0,0,697.10761,703.9012Z" class="colorffbdbd svgShape"/><path fill="#0d0c0c" d="M949.777,693.47005s-123.18923-25.49372-140.51032-85.081c-22.73683-78.2183,113.75509-35.37679,113.75509-35.37679l44.37671,45.05359Z" class="color0d0c0c svgShape"/><circle cx="851.361" cy="725.625" r="8.244" fill="#0d0c0c" class="color0d0c0c svgShape"/><circle cx="920.574" cy="733.119" r="8.244" fill="#0d0c0c" class="color0d0c0c svgShape"/><path fill="#f48484" d="M876.99948,755.87773a2.34592,2.34592,0,0,1-.61789-4.51024c2.74174-1.09975,4.29568-2.59545,4.74507-4.57487,1.05675-4.65157-3.896-11.31353-5.89135-13.48852a2.34639,2.34639,0,0,1,3.451-3.1801c.903.98275,8.80049,9.82108,7.02153,17.69469-.80377,3.54969-3.35491,6.20958-7.58532,7.90407A2.30248,2.30248,0,0,1,876.99948,755.87773Z" class="colorf48484 svgShape"/><path fill="#0d0c0c" d="M829.70641 666.96153c21.85991-7.00961 32.60913 5.80424 33.10686 6.42205a3.95008 3.95008 0 01-6.11249 5.00486c-.4739-.56875-10.68321-11.97663-32.87851-.38131a3.95152 3.95152 0 01-3.6558-7.00666A60.85213 60.85213 0 01829.70641 666.96153zM901.16617 679.55264c21.85992-7.00961 32.60914 5.80424 33.10687 6.422a3.95008 3.95008 0 01-6.11249 5.00486c-.47391-.56875-10.68321-11.97663-32.87851-.3813a3.95153 3.95153 0 11-3.65581-7.00667A60.85187 60.85187 0 01901.16617 679.55264z" class="color0d0c0c svgShape"/><path fill="#f48484" d="M847.36931,762.10479c-17.19264-3.73093-19.41173-16.35511-19.5051-16.95589a3.02719,3.02719,0,0,1,5.97494-.97711c.09637.55911,2.49632,12.04334,21.66987,12.86009a3.0283,3.0283,0,0,1-.26091,6.051A46.63543,46.63543,0,0,1,847.36931,762.10479Z" class="colorf48484 svgShape"/><path fill="#658dff" d="M886.77333,1471.136a20.89774,20.89774,0,0,0,20.79841,20.85789h369.142v-41.6563h-369.142A20.82131,20.82131,0,0,0,886.77333,1471.136Z" class="color658dff svgShape"/><path fill="#b2c6ff" d="M1781.787,1141.78135l-45.48962,173.26049-35.61421,135.54845a56.544,56.544,0,0,1-54.49584,41.39641H1168.56961l99.01322-376.76243a37.50541,37.50541,0,0,1,21.08188-24.66383,36.798,36.798,0,0,1,14.99269-3.17249h441.69678C1773.70238,1087.388,1789.4112,1114.4566,1781.787,1141.78135Z" class="colorb2c6ff svgShape"/><path fill="#ffffff" d="M1443.64306,1299.74874a41.708,41.708,0,1,0,41.70852-41.708A41.70879,41.70879,0,0,0,1443.64306,1299.74874Z" class="colorfff svgShape"/><path fill="#ffbdbd" d="M910.12967,1375.55712c17.85184,18.999,40.57022,18.90327,59.82016,13.33607,22.4066-6.45562,40.15658-20.4096,40.15658-20.4096l28.36893,20.98048,64.46864-15.9936-60.9306-58.64985c-9.01431-8.68615-22.67159-12.05211-35.74431-8.809l-76.89515,19.07642Z" class="colorffbdbd svgShape"/><polygon fill="#ffbdbd" points="929.374 1325.088 856.673 1316.116 851.64 1390.108 935.807 1383.268 929.374 1325.088" class="colorffbdbd svgShape"/><path fill="#3866f6" d="M898.60015,1296.62809l-29.7808,141.89344s-196.1335,1.68869-342.83691-.20456c-130.022-1.68869-142.3541-80.6947-141.53521-115.1318v-.05122c33.26029-87.14213,173.36261-52.70472,173.36261-52.70472Z" class="color3866f6 svgShape"/><path fill="#3866f6" d="M606.72836,922.27048c-28.34821-13.918-62.88775-11.66653-88.67716,5.93586-21.49133,14.63445-44.2619,38.63305-58.12869,77.62433C427.63445,1096.70808,385.931,1307.476,385.931,1307.476a93.714,93.714,0,0,0-1.4838,15.65791h0l173.36261-52.70472,74.96372-226.68165C646.794,1004.09107,646.74278,941.91978,606.72836,922.27048Z" class="color3866f6 svgShape"/><polygon fill="#0e2cc2" points="870.896 1441.079 518.307 1441.079 518.307 1435.963 866.742 1435.963 895.498 1298.955 558.188 1273.024 468.904 1307.188 467.075 1302.408 557.433 1267.834 901.704 1294.3 870.896 1441.079" class="color0e2cc2 svgShape"/><rect width="200.863" height="5.117" x="488.911" y="1172.518" fill="#0e2cc2" transform="rotate(-71.688 589.343 1175.076)" class="color0e2cc2 svgShape"/><path fill="#0e2cc2" d="M776.9729,997.82028a287.44121,287.44121,0,0,1-76.07152-10.64666l1.52495-4.8841c.75714.23594,76.32746,23.33013,137.17348.052l1.82887,4.78013C820.45,995.14628,797.81832,997.82028,776.9729,997.82028Z" class="color0e2cc2 svgShape"/><rect width="5.118" height="68.176" x="802.511" y="1079.158" fill="#0e2cc2" transform="rotate(-10.45 805.05 1113.223)" class="color0e2cc2 svgShape"/><rect width="98.358" height="5.116" x="951.196" y="1269.722" fill="#0e2cc2" transform="rotate(-11.421 1000.375 1272.28)" class="color0e2cc2 svgShape"/><path fill="#c1d1ff" d="M1787.2128,1134.11311l-45.48961,173.26049-253.49483-227.65389H1750.78C1779.12822,1079.71971,1794.837,1106.78836,1787.2128,1134.11311Z" class="colorc1d1ff svgShape"/><rect width="1638.284" height="10.235" x="211.289" y="1486.877" fill="#000000" class="color000 svgShape"/><path fill="#449fff" d="M867.48889,1482.83466h-3.83773l-4.55418-39.45195L805.26669,980.39948c-2.25148-19.75174-17.60239-33.36274-37.66113-33.36274h3.78682c20.10965,0,35.46055,13.611,37.712,33.36274l53.77939,462.98323Z" class="color449fff svgShape"/><path fill="#ffffff" d="M654.04226,1365.89072s.91307-23.73985-20.08757-44.74049-105.00321-.21935-105.00321-26.58875,131.97,30.15136,72.13264-72.023c0,0,4.12566,44.74049-28.06853,44.74049s-60.75531,2.73922-64.73617,34.69672,39.84656,40.17514,39.84656,56.61042S654.04226,1365.89072,654.04226,1365.89072Z" opacity=".5" class="colorfff svgShape"/><path fill="#ffffff" d="M448.65778,1413.48328a51.31851,51.31851,0,1,1,51.32,51.31705A51.37614,51.37614,0,0,1,448.65778,1413.48328Zm17.8272,0a33.4913,33.4913,0,1,0,33.49275-33.48985A33.52944,33.52944,0,0,0,466.485,1413.48328Z" class="colorfff svgShape"/><path fill="#e8e8e8" d="M511.60393,1361.1398l15.9256,98.10911a30.40394,30.40394,0,0,0,30.0689,25.61174h59.60211a30.4537,30.4537,0,0,0,26.80029-16.104,29.19515,29.19515,0,0,0,3.03068-8.43811l19.60986-98.58461a16.42385,16.42385,0,0,0-16.16353-19.60985H527.82694A16.42125,16.42125,0,0,0,511.60393,1361.1398Z" class="colore8e8e8 svgShape"/><path fill="#ffffff" d="M528.71808,1342.124c19.7883,81.88611,77.31071,114.03471,115.28275,126.63257a29.19515,29.19515,0,0,0,3.03068-8.43811l19.60986-98.58461a16.42385,16.42385,0,0,0-16.16353-19.60985Z" class="colorfff svgShape"/></svg>